<svg width="23" height="21" viewBox="0 0 23 21" fill="none" xmlns="http://www.w3.org/2000/svg">
<path d="M14.6364 0H5.22727C4.35955 0 3.61727 0.51803 3.30364 1.26399L0.146364 8.56822C0.0522727 8.80652 0 9.05517 0 9.32455V11.3967C0 12.5363 0.940909 13.4688 2.09091 13.4688H8.68773L7.69454 18.2036L7.66318 18.5351C7.66318 18.9599 7.84091 19.3536 8.12318 19.6334L9.23136 20.7212L16.1209 13.8936C16.4973 13.5206 16.7273 13.0026 16.7273 12.4327V2.07212C16.7273 0.932455 15.7864 0 14.6364 0ZM18.8182 0V12.4327H23V0H18.8182Z" fill="black"/>
</svg>
