<svg width="23" height="21" viewBox="0 0 23 21" fill="none" xmlns="http://www.w3.org/2000/svg">
<path d="M0 20.7212H4.18182V8.28849H0V20.7212ZM23 9.32455C23 8.18488 22.0591 7.25243 20.9091 7.25243H14.3123L15.3055 2.51763L15.3368 2.18609C15.3368 1.7613 15.1591 1.3676 14.8768 1.08786L13.7686 0L6.88955 6.82764C6.50273 7.20062 6.27273 7.71865 6.27273 8.28849V18.6491C6.27273 19.7888 7.21364 20.7212 8.36364 20.7212H17.7727C18.6405 20.7212 19.3827 20.2032 19.6964 19.4572L22.8536 12.153C22.9477 11.9147 23 11.666 23 11.3967V9.32455Z" fill="black"/>
</svg>
